<?xml version="1.0" encoding="UTF-8"?>
<svg xmlns="http://www.w3.org/2000/svg" viewBox="0 0 80 80">
  <defs>
    <style>
      .symbol {
        fill: #023;
      }
    </style>
  </defs>
  <!-- Símbolo TOTVS simplificado baseado no elemento oval da logo original -->
  <path class="symbol" d="M40,10c-1.6,0-3.2,0.2-4.8,0.6c-9.7,2.5-18.6,6.7-26.1,12.4c-1.4,1.1-2.4,2.5-2.9,4c-1.1,4.1-1.7,8.3-1.7,12.4v12.6c0,4.2,0.6,8.3,1.7,12.4c0.4,1.6,1.4,3,2.9,4c7.5,5.6,16.4,9.8,26.1,12.4c1.6,0.4,3.2,0.6,4.8,0.6s3.2-0.2,4.8-0.6c9.7-2.5,18.6-6.7,26.1-12.4c1.4-1.1,2.4-2.5,2.9-4c1.1-4.1,1.7-8.3,1.7-12.4V39.4c0-4.2-0.6-8.3-1.7-12.4c-0.4-1.6-1.4-3-2.9-4c-7.5-5.6-16.4-9.8-26.1-12.4C43.2,10.2,41.6,10,40,10z M40,20c1,0,2,0.1,3,0.3c4.8,1.2,9.4,2.9,13.7,4.9c4.3,2,8.4,4.5,12.1,7.2c1.3,1,2.2,2.2,2.6,3.6c0.3,0.9,0.3,1.9,0,2.8c-0.4,1.4-1.3,2.6-2.6,3.6c-3.7,2.8-7.7,5.2-12.1,7.2c-4.3,2-8.9,3.7-13.7,4.9c-1,0.2-2,0.3-3,0.3s-2-0.1-3-0.3c-4.8-1.2-9.4-2.9-13.7-4.9c-4.3-2-8.4-4.5-12.1-7.2c-1.3-1-2.2-2.2-2.6-3.6c-0.3-0.9-0.3-1.9,0-2.8c0.4-1.4,1.3-2.6,2.6-3.6c3.7-2.8,7.7-5.2,12.1-7.2c4.3-2,8.9-3.7,13.7-4.9C38,20.1,39,20,40,20z"/>
</svg>
